<?xml version="1.0" encoding="UTF-8"?>
<svg version="1.1" xmlns="http://www.w3.org/2000/svg" width="1080" height="800">
<path d="M0 0 C1.36329057 1.12383672 2.6795278 2.30454075 3.98046875 3.5 C6.79360066 2.53549763 8.86520757 1.59550212 11.16796875 -0.3125 C23.02352998 -9.53349207 37.33179536 -11.94007362 51.98046875 -10.5 C61.58068134 -8.84919579 69.17210532 -5.23836104 76.98046875 0.5 C78.05296875 1.263125 79.12546875 2.02625 80.23046875 2.8125 C88.18623239 10.58745083 95.61190988 22.14621189 96.11468983 33.54226685 C96.12110005 35.34303177 96.12110005 35.34303177 96.12763977 37.18017578 C96.13131646 37.8504738 96.13499315 38.52077183 96.13878125 39.21138191 C96.14978904 41.45603325 96.15365689 43.70063825 96.1574707 45.9453125 C96.16373728 47.55515692 96.17038425 49.1649999 96.17738342 50.77484131 C96.19839355 56.05821735 96.20877921 61.34159359 96.21875 66.625 C96.22279793 68.44386816 96.22691486 70.26273616 96.23110008 72.081604 C96.25014073 80.62243559 96.26437721 89.16325856 96.27271205 97.70410728 C96.28249717 107.56813659 96.30885451 117.43194226 96.34921294 127.29589272 C96.37933485 134.91890469 96.39417697 142.54185237 96.39749306 150.16492271 C96.39984698 154.7191193 96.40885237 159.27307663 96.43395424 163.82720947 C96.45717309 168.10855878 96.46149337 172.38951021 96.45119286 176.67090607 C96.45069596 178.24309866 96.45706159 179.81531045 96.4707489 181.38744354 C96.48837786 183.53205127 96.48140826 185.67521684 96.46821594 187.81982422 C96.4706043 189.02033417 96.47299265 190.22084412 96.47545338 191.45773315 C95.88203 195.10502273 94.87342231 196.27615554 91.98046875 198.5 C89.8939209 199.00793457 89.8939209 199.00793457 87.64257812 199.01757812 C86.79489868 199.03018677 85.94721924 199.04279541 85.07385254 199.05578613 C84.16647339 199.04768921 83.25909424 199.03959229 82.32421875 199.03125 C81.3849353 199.0350769 80.44565186 199.03890381 79.47790527 199.04284668 C77.49421109 199.04556576 75.51048105 199.03820484 73.52685547 199.02148438 C70.49104859 199.00007461 67.45760829 199.02128607 64.421875 199.046875 C62.49348436 199.04423172 60.56509519 199.03910675 58.63671875 199.03125 C57.7293396 199.03934692 56.82196045 199.04744385 55.88708496 199.05578613 C54.6155658 199.03687317 54.6155658 199.03687317 53.31835938 199.01757812 C52.2039447 199.01280457 52.2039447 199.01280457 51.0670166 199.00793457 C48.05893452 198.27566817 46.92299083 196.88025539 44.98046875 194.5 C44.48104 191.83089924 44.48104 191.83089924 44.48167419 188.72663879 C44.47209686 187.54775085 44.46251953 186.36886292 44.45265198 185.1542511 C44.46239548 183.86431747 44.47213898 182.57438385 44.48217773 181.24536133 C44.47835376 179.8702231 44.47273405 178.49508887 44.4654541 177.1199646 C44.45350237 174.15970761 44.45399375 171.19980529 44.46404839 168.23954201 C44.47961879 163.55293161 44.46592287 158.86668477 44.44801331 154.18009949 C44.41718366 145.07012185 44.41569141 135.96025515 44.41766357 126.85023499 C44.41905583 115.27269419 44.40860638 103.69523967 44.36908585 92.11776179 C44.3541998 87.46537192 44.35438746 82.81330477 44.36656368 78.16091025 C44.3712969 75.25635935 44.36372001 72.35193019 44.35301971 69.44739914 C44.34949226 67.47272219 44.36084677 65.4980359 44.37275696 63.52339172 C44.33526283 56.90408568 44.21565677 50.45184772 40.98046875 44.5 C36.15827884 41.48613131 29.5267641 41.94960428 23.98046875 42.5 C20.16622356 44.08926883 18.13907949 46.01059253 15.98046875 49.5 C15.53453344 52.29461918 15.53453344 52.29461918 15.60865784 55.41416931 C15.60190033 56.62408035 15.59514282 57.83399139 15.58818054 59.08056641 C15.59573357 60.41821429 15.60353929 61.75586077 15.61157227 63.09350586 C15.60910387 64.50468742 15.60526506 65.91586715 15.60015869 67.32704163 C15.5918231 70.36419214 15.59262613 73.40115514 15.6003437 76.43830681 C15.61192649 81.24139456 15.59976444 86.04424107 15.58372498 90.8473053 C15.5475307 102.77715605 15.54130129 114.7070012 15.54382324 126.63690186 C15.54553413 135.90851638 15.538423 145.17993396 15.50384468 154.45149332 C15.48704545 159.22547578 15.48884954 163.99897806 15.5046674 168.77295864 C15.510464 171.74400438 15.49972507 174.71482238 15.48442078 177.68582726 C15.48069426 179.06246583 15.48380358 180.43914264 15.49429131 181.81574631 C15.50766575 183.69673901 15.49411803 185.57786545 15.47926331 187.45884705 C15.47947259 188.51094832 15.47968187 189.5630496 15.4798975 190.64703274 C14.85340947 194.22582117 13.46924886 195.90293275 10.98046875 198.5 C7.63995498 200.17025689 3.88519111 199.68473139 0.2109375 199.703125 C-0.66221603 199.70882507 -1.53536957 199.71452515 -2.4349823 199.72039795 C-4.28517442 199.72985345 -6.13538343 199.73638411 -7.9855957 199.74023438 C-10.81035969 199.74992565 -13.63439169 199.78093755 -16.45898438 199.8125 C-18.2565061 199.81903152 -20.05403302 199.82428141 -21.8515625 199.828125 C-22.69443314 199.8404718 -23.53730377 199.8528186 -24.40571594 199.86553955 C-29.09668778 199.84780892 -32.21730172 199.5664195 -36.01953125 196.5 C-37.34627138 193.84651974 -37.1502903 191.84370267 -37.15756226 188.87103271 C-37.16301559 187.67373032 -37.16846893 186.47642792 -37.17408752 185.24284363 C-37.17520737 183.90896612 -37.17625788 182.57508855 -37.17724609 181.24121094 C-37.18191343 179.84180033 -37.18705686 178.44239125 -37.19264221 177.04298401 C-37.20393219 174.02496228 -37.21236209 171.00695048 -37.21876144 167.98891449 C-37.22943328 163.21516737 -37.24967666 158.44149133 -37.2718811 153.66778564 C-37.33383045 140.09154522 -37.38779969 126.51530849 -37.42089844 112.93896484 C-37.43925083 105.44420893 -37.46819585 97.94957162 -37.50890315 90.45490289 C-37.52996551 86.48866067 -37.54542928 82.52256787 -37.54771042 78.55626678 C-37.54985985 74.82319789 -37.56575905 71.09043991 -37.59210014 67.35746574 C-37.60270323 65.33809512 -37.59854325 63.31866379 -37.59391785 61.29927063 C-37.60501083 60.09068893 -37.61610382 58.88210724 -37.62753296 57.63690186 C-37.63249818 56.06729769 -37.63249818 56.06729769 -37.63756371 54.46598434 C-38.09189698 50.93807887 -39.199347 48.54202794 -41.01953125 45.5 C-45.95894288 41.88579637 -51.12567448 41.80040399 -57.01953125 42.5 C-61.87865446 44.1786062 -63.76933353 45.94127522 -66.01953125 50.5 C-66.46224632 53.38051081 -66.46224632 53.38051081 -66.39134216 56.49645996 C-66.39809967 57.69933151 -66.40485718 58.90220306 -66.41181946 60.14152527 C-66.40410019 61.45284927 -66.39638092 62.76417328 -66.38842773 64.11523438 C-66.39089691 65.51671136 -66.39473651 66.91818651 -66.39984131 68.31965637 C-66.40816847 71.33278054 -66.40738109 74.34571565 -66.3996563 77.35884094 C-66.38806186 82.12420376 -66.40024497 86.88932392 -66.41627502 91.65466309 C-66.45244783 103.48934475 -66.45869813 115.32402052 -66.45617676 127.15875244 C-66.45446577 136.35965184 -66.46157583 145.5603528 -66.49615532 154.76119661 C-66.51295133 159.49754796 -66.51115352 164.23341528 -66.4953326 168.96976471 C-66.48953596 171.9167741 -66.50027478 174.8635539 -66.51557922 177.81052208 C-66.52108126 179.82651448 -66.5066935 181.84253047 -66.49171448 183.85847473 C-66.50129181 185.06134628 -66.51086914 186.26421783 -66.52073669 187.50354004 C-66.52052741 188.54696815 -66.52031813 189.59039627 -66.5201025 190.66544342 C-67.14870619 194.23314495 -68.52217154 195.92400084 -71.01953125 198.5 C-73.09934998 199.13491821 -73.09934998 199.13491821 -75.34155273 199.14697266 C-76.60823036 199.17061386 -76.60823036 199.17061386 -77.90049744 199.19473267 C-78.80473953 199.18461151 -79.70898163 199.17449036 -80.640625 199.1640625 C-82.04599266 199.17123795 -82.04599266 199.17123795 -83.47975159 199.17855835 C-85.45925578 199.18195752 -87.4388161 199.17275383 -89.41821289 199.15185547 C-92.44349888 199.12511959 -95.46506467 199.15158658 -98.49023438 199.18359375 C-100.41537276 199.18028907 -102.34050882 199.17388162 -104.265625 199.1640625 C-105.16784286 199.17418365 -106.07006073 199.18430481 -106.99961853 199.19473267 C-107.84722244 199.17897186 -108.69482635 199.16321106 -109.56811523 199.14697266 C-110.30883774 199.14299469 -111.04956024 199.13901672 -111.81272888 199.13491821 C-115.29216736 198.13385038 -116.75975341 196.28854229 -119.01953125 193.5 C-119.51035772 190.6181796 -119.69319022 188.3292009 -119.64772034 185.45349121 C-119.65481472 184.6482871 -119.66190911 183.84308299 -119.66921848 183.01347876 C-119.68680836 180.31774377 -119.66868934 177.62344877 -119.65063477 174.92773438 C-119.65577322 172.99424076 -119.66305393 171.06075182 -119.6723175 169.12727356 C-119.6908491 163.87722529 -119.67788169 158.62768416 -119.65822721 153.37765694 C-119.64185401 147.88535079 -119.65065175 142.3930771 -119.65574646 136.90075684 C-119.66026889 127.67708221 -119.6443882 118.45361028 -119.61645508 109.22998047 C-119.58440259 98.56382731 -119.58441848 87.89803976 -119.60166985 77.23186064 C-119.6175296 66.97437674 -119.6108049 56.71702697 -119.59373283 46.45954895 C-119.58685742 42.09280328 -119.58789984 37.72616496 -119.59527779 33.35942078 C-119.60293478 28.21783665 -119.59083345 23.07666896 -119.56342888 17.93515587 C-119.55653784 16.04734725 -119.55645475 14.15949978 -119.56364441 12.27169228 C-119.57232348 9.69616523 -119.55640999 7.12192791 -119.53419495 4.54650879 C-119.54243571 3.79796678 -119.55067648 3.04942477 -119.55916697 2.27819967 C-119.48172708 -2.5801596 -118.49643644 -5.10028434 -115.01953125 -8.5 C-111.13078219 -10.04914843 -106.85075653 -9.68036467 -102.7109375 -9.703125 C-101.907202 -9.70882507 -101.10346649 -9.71452515 -100.27537537 -9.72039795 C-98.57837228 -9.72982672 -96.88135106 -9.73637348 -95.18432617 -9.74023438 C-92.59456421 -9.74995297 -90.00559196 -9.78100083 -87.41601562 -9.8125 C-85.76432761 -9.81902948 -84.11263395 -9.82428017 -82.4609375 -9.828125 C-81.68996231 -9.8404718 -80.91898712 -9.8528186 -80.12464905 -9.86553955 C-75.56756268 -9.84674003 -72.61818703 -9.3601585 -69.01953125 -6.5 C-67.01953125 -3.5 -67.01953125 -3.5 -67.01953125 0.5 C-66.148125 -0.04269531 -65.27671875 -0.58539063 -64.37890625 -1.14453125 C-43.93032804 -13.56986251 -19.8958778 -14.77759589 0 0 Z " fill="#00BBF0" transform="translate(839.01953125,77.5)"/>
<path d="M0 0 C30.18358495 -0.09128182 60.36716515 -0.16205492 90.55085769 -0.20426132 C94.11561109 -0.20926405 97.6803642 -0.21444135 101.24511719 -0.21972656 C101.95478502 -0.2207758 102.66445285 -0.22182505 103.39562577 -0.22290608 C114.88128135 -0.24030373 126.36685672 -0.27183787 137.85246474 -0.30861118 C149.64078772 -0.34603847 161.42906875 -0.36823962 173.21744871 -0.37635398 C179.83754398 -0.38134639 186.45749009 -0.39383543 193.07752991 -0.42292023 C199.30895266 -0.45007577 205.5401187 -0.45844455 211.771595 -0.45243073 C214.05808024 -0.45353088 216.34457409 -0.46148367 218.63100815 -0.4768219 C221.75517452 -0.49675139 224.87837429 -0.49192775 228.00256348 -0.48101807 C228.90530644 -0.49266943 229.8080494 -0.5043208 230.73814821 -0.51632524 C236.56457852 -0.46140913 241.1879905 0.57446818 246 4 C249.54342127 8.03619249 250.4112968 11.73836943 250.30792236 17.13485718 C249.61124692 23.61725303 247.59862035 29.88587816 245.8359375 36.14453125 C245.400966 37.72017427 244.96695327 39.29608224 244.53384399 40.87223816 C243.39236411 45.01514856 242.23678849 49.15400156 241.07849121 53.29223633 C239.92173064 57.43634161 238.78024349 61.58464913 237.63671875 65.73242188 C235.68858949 72.78968889 233.71680079 79.83996617 231.72347641 86.88459969 C230.53575181 91.08467252 229.37154826 95.29028812 228.22363281 99.50146484 C227.72564257 101.27600642 227.22672974 103.05028955 226.7265625 104.82421875 C226.43245987 105.94072563 226.43245987 105.94072563 226.13241577 107.07978821 C224.08866679 114.1503013 219.83519048 120.39270476 213.5625 124.375 C212.51255859 125.06722656 212.51255859 125.06722656 211.44140625 125.7734375 C205.72149087 128.64712299 200.10601949 129.29510236 193.79322815 129.2784729 C192.99503802 129.2842653 192.19684789 129.2900577 191.37447017 129.29602563 C188.71518132 129.31295337 186.05606678 129.31589588 183.39672852 129.31884766 C181.48438597 129.32815082 179.57204746 129.33832007 177.65971375 129.34928894 C172.4784839 129.37655915 167.2972812 129.39172956 162.11599851 129.40471697 C156.69741282 129.4203605 151.27888245 129.44714685 145.8603363 129.4727478 C135.60412612 129.51951389 125.34790551 129.55626854 115.09164327 129.58942068 C103.4133134 129.62765736 91.73503913 129.6770635 80.05675614 129.72740483 C56.03787864 129.83069244 32.01896543 129.91996319 8 130 C7.70051956 131.09516182 7.70051956 131.09516182 7.39498901 132.21244812 C5.48494358 139.19640109 3.57372932 146.18003276 1.66129875 153.16333294 C0.67885945 156.75089244 -0.30317451 160.33856172 -1.28417969 163.92651367 C-8.75696243 191.25513698 -8.75696243 191.25513698 -12.4921875 204.45703125 C-12.73583038 205.32599533 -12.97947327 206.19495941 -13.23049927 207.09025574 C-14.88209213 212.88209213 -14.88209213 212.88209213 -16 214 C-17.35094982 214.09268999 -18.70667091 214.11747326 -20.06079102 214.11352539 C-20.92160782 214.11344986 -21.78242462 214.11337433 -22.66932678 214.11329651 C-23.60473801 214.10813522 -24.54014923 214.10297394 -25.50390625 214.09765625 C-26.45692123 214.0962413 -27.40993622 214.09482635 -28.39183044 214.09336853 C-31.44875165 214.08775152 -34.50560077 214.07519616 -37.5625 214.0625 C-39.62955624 214.05748719 -41.69661362 214.05292391 -43.76367188 214.04882812 C-48.84247588 214.03777656 -53.9212257 214.02050055 -59 214 C-57.767799 207.45104094 -56.28967994 201.03382509 -54.49731445 194.61669922 C-54.25467361 193.73695435 -54.01203278 192.85720947 -53.76203918 191.95080566 C-52.96591159 189.06779689 -52.16470234 186.18622885 -51.36328125 183.3046875 C-50.79971915 181.26904471 -50.23642563 179.23332754 -49.67338562 177.19754028 C-48.49286887 172.932025 -47.30998664 168.66717551 -46.12524414 164.40283203 C-44.62703187 159.00995331 -43.13329851 153.61584786 -41.64123249 148.22126579 C-40.47653051 144.01138764 -39.31004188 139.80200614 -38.14299583 135.59277725 C-37.59297793 133.60871787 -37.0433212 131.62455832 -36.49407387 129.64028549 C-32.45440653 115.05438413 -28.23837631 100.53157593 -24 86 C45.96 86 115.92 86 188 86 C188.66 82.7 189.32 79.4 190 76 C192.97 65.44 195.94 54.88 199 44 C94.555 43.505 94.555 43.505 -12 43 C-3.875 11.66071429 -3.875 11.66071429 0 0 Z " fill="#221E1F" transform="translate(481,557)"/>
<path d="M0 0 C84.81 0 169.62 0 257 0 C257 32.67 257 65.34 257 99 C165.26 99 73.52 99 -21 99 C-19.81743629 91.90461772 -18.63326974 84.88882527 -17.13647461 77.86669922 C-16.96222458 77.03910599 -16.78797455 76.21151276 -16.60844421 75.35884094 C-16.04232289 72.67357083 -15.47249278 69.98910506 -14.90234375 67.3046875 C-14.50388736 65.4209395 -14.10557956 63.53716006 -13.70741272 61.65335083 C-12.87783977 57.73143089 -12.04640129 53.80991242 -11.21362305 49.88867188 C-10.14512178 44.85668944 -9.08148969 39.82369194 -8.01923275 34.79038811 C-7.2002452 30.91248871 -6.37865836 27.03514361 -5.55627632 23.1579628 C-5.16272597 21.30092847 -4.77000604 19.44371796 -4.37812614 17.58633041 C-3.83278296 15.0034334 -3.28393583 12.42130586 -2.73413086 9.83935547 C-2.49176697 8.68620094 -2.49176697 8.68620094 -2.24450684 7.50975037 C-1.11425946 2.22851893 -1.11425946 2.22851893 0 0 Z " fill="#193280" transform="translate(679,370)"/>
<path d="M0 0 C14.52 0 29.04 0 44 0 C42.7043765 6.47811751 41.349188 12.74051647 39.56420898 19.0715332 C39.32756594 19.92222193 39.09092289 20.77291065 38.84710884 21.64937782 C38.06688519 24.45082039 37.28151013 27.25079052 36.49609375 30.05078125 C35.93904496 32.04699379 35.38232523 34.04329819 34.82591248 36.03968811 C33.34038355 41.36633077 31.8504527 46.69173266 30.35964203 52.01689911 C28.82132645 57.51461426 27.28703507 63.01345204 25.75244141 68.51220703 C23.30964848 77.26370655 20.86474272 86.01461294 18.41845703 94.76513672 C15.42673469 105.46773122 12.44323954 116.17259637 9.46484375 126.87890625 C9.05784584 128.34160128 8.6508382 129.8042936 8.24382019 131.26698303 C6.76238558 136.59097494 5.28106439 141.91499834 3.80026245 147.23916626 C2.82331556 150.7507979 1.84539644 154.26215725 0.8671875 157.7734375 C0.44571693 159.2897451 0.44571693 159.2897451 0.01573181 160.83668518 C-0.23840988 161.74828903 -0.49255157 162.65989288 -0.75439453 163.59912109 C-0.97273956 164.38354584 -1.19108459 165.16797058 -1.41604614 165.97616577 C-1.90282482 167.66321576 -2.4447441 169.3342323 -3 171 C52.44 171 107.88 171 165 171 C165.66 167.7 166.32 164.4 167 161 C167.78140812 157.96260622 168.58509462 154.94574212 169.43579102 151.9284668 C169.67243406 151.07777807 169.90907711 150.22708935 170.15289116 149.35062218 C170.93311481 146.54917961 171.71848987 143.74920948 172.50390625 140.94921875 C173.06095504 138.95300621 173.61767477 136.95670181 174.17408752 134.96031189 C175.65961645 129.63366923 177.1495473 124.30826734 178.64035797 118.98310089 C180.17867355 113.48538574 181.71296493 107.98654796 183.24755859 102.48779297 C185.69035152 93.73629345 188.13525728 84.98538706 190.58154297 76.23486328 C193.57326531 65.53226878 196.55676046 54.82740363 199.53515625 44.12109375 C199.94215416 42.65839872 200.3491618 41.1957064 200.75617981 39.73301697 C202.23761442 34.40902506 203.71893561 29.08500166 205.19973755 23.76083374 C206.17668444 20.2492021 207.15460356 16.73784275 208.1328125 13.2265625 C208.41379288 12.21569077 208.69477325 11.20481903 208.98426819 10.16331482 C209.23840988 9.25171097 209.49255157 8.34010712 209.75439453 7.40087891 C210.08191208 6.22424179 210.08191208 6.22424179 210.41604614 5.02383423 C210.90282482 3.33678424 211.4447441 1.6657677 212 0 C226.52 0 241.04 0 256 0 C250.57208869 21.2825316 244.75838442 42.4374723 238.82756042 63.58412933 C236.71425316 71.12063935 234.60481605 78.65823466 232.49481583 86.19567108 C231.9476319 88.15009925 231.40031639 90.10449059 230.85287094 92.05884552 C226.89775549 106.17915604 222.97226357 120.3074071 219.06806755 134.44187737 C217.42563325 140.38488396 215.77883796 146.32668389 214.13206959 152.26849079 C212.81347262 157.02788214 211.4979584 161.78808357 210.1892395 166.55020142 C208.96193313 171.01596928 207.72698625 175.4795543 206.48633766 179.94163322 C206.03362915 181.57531612 205.58377671 183.20979369 205.13706017 184.8451252 C199.24761675 206.39162061 199.24761675 206.39162061 191 212 C185.85429233 214.19543476 181.23810209 214.28491452 175.7457428 214.26069641 C174.82267238 214.26452196 173.89960195 214.26834751 172.9485597 214.27228898 C169.86026091 214.28259509 166.77214887 214.27863135 163.68383789 214.2746582 C161.46773609 214.27900597 159.25163578 214.28418934 157.03553772 214.29014587 C151.01906903 214.30353956 145.00266314 214.30411416 138.98618245 214.30158257 C133.96368765 214.30051319 128.94120558 214.30539536 123.91871351 214.310188 C111.39313075 214.32191874 98.8675785 214.32105734 86.34199559 214.31463119 C75.47037272 214.30946181 64.59883945 214.32071886 53.72723431 214.33972941 C42.55683353 214.3591123 31.38646538 214.36707169 20.21604532 214.36360615 C13.94766419 214.36179232 7.67936515 214.36443966 1.41099739 214.37832069 C-4.48315594 214.39088464 -10.37712975 214.38896837 -16.27128029 214.37590981 C-18.43401017 214.37354143 -20.59675262 214.37628804 -22.75946808 214.38453293 C-25.71277391 214.39497966 -28.66547508 214.38691612 -31.61875916 214.3742218 C-32.47363086 214.38159609 -33.32850257 214.38897037 -34.20927948 214.39656812 C-41.01683112 214.33505105 -45.75634293 213.09733161 -50.875 208.3125 C-54.11381326 203.26376168 -54.29470982 198.88028743 -53.39006042 193.10850525 C-53.06167324 191.76253518 -52.71767288 190.4203014 -52.36010742 189.08178711 C-52.17569438 188.3486904 -51.99128134 187.6155937 -51.80128002 186.86028194 C-51.21827855 184.56855715 -50.61285455 182.28390772 -50 180 C-49.81331882 179.29765858 -49.62663765 178.59531715 -49.43429947 177.87169266 C-48.07930258 172.79918574 -46.66278002 167.74475081 -45.23828125 162.69140625 C-44.77357659 161.03246615 -44.30921143 159.37343091 -43.84515381 157.71430969 C-42.8541314 154.17347175 -41.86104054 150.63322355 -40.86624146 147.09344482 C-39.28862993 141.47948879 -37.71591662 135.86416841 -36.14428711 130.24853516 C-35.87676415 129.29268021 -35.6092412 128.33682526 -35.33361149 127.352005 C-34.78601685 125.39543296 -34.23843657 123.4388569 -33.69087029 121.48227692 C-32.85312088 118.48937561 -32.01492945 115.49659838 -31.176651 112.50384521 C-25.05313157 90.63834674 -18.97300834 68.76081764 -12.89760971 46.88190842 C-11.78852386 42.88851744 -10.67875154 38.89531736 -9.56899071 34.90211391 C-8.53033106 31.164336 -7.49215246 27.42642463 -6.45413971 23.68846703 C-5.9712481 21.94976737 -5.48820371 20.21111013 -5.00499725 18.47249794 C-4.34536373 16.09882772 -3.68638393 13.724977 -3.02758789 11.35107422 C-2.83506597 10.65880517 -2.64254404 9.96653612 -2.44418812 9.25328922 C-1.59098921 6.17633496 -0.77453921 3.09815685 0 0 Z " fill="#221E1F" transform="translate(198,557)"/>
<path d="M0 0 C88.77 0 177.54 0 269 0 C267.81743629 7.09538228 266.63326974 14.11117473 265.13647461 21.13330078 C264.96222458 21.96089401 264.78797455 22.78848724 264.60844421 23.64115906 C264.04232289 26.32642917 263.47249278 29.01089494 262.90234375 31.6953125 C262.50388736 33.5790605 262.10557956 35.46283994 261.70741272 37.34664917 C260.87783977 41.26856911 260.04640129 45.19008758 259.21362305 49.11132812 C258.14512178 54.14331056 257.08148969 59.17630806 256.01923275 64.20961189 C255.2002452 68.08751129 254.37865836 71.96485639 253.55627632 75.8420372 C253.16272597 77.69907153 252.77000604 79.55628204 252.37812614 81.41366959 C251.83278296 83.9965666 251.28393583 86.57869414 250.73413086 89.16064453 C250.57255493 89.92941422 250.410979 90.6981839 250.24450684 91.49024963 C249.11425946 96.77148107 249.11425946 96.77148107 248 99 C166.16 99 84.32 99 0 99 C0 66.33 0 33.66 0 0 Z " fill="#00BBF1" transform="translate(146,370)"/>
<path d="M0 0 C1.16924515 -0.00938095 2.3384903 -0.0187619 3.54316711 -0.02842712 C4.80146835 -0.01719315 6.05976959 -0.00595917 7.35620117 0.00561523 C9.31960701 0.00343239 9.31960701 0.00343239 11.32267761 0.00120544 C14.09764691 -0.00017808 16.87209923 0.01235197 19.64697266 0.03515625 C23.15591212 0.06323984 26.66398239 0.06059818 30.17298412 0.04847622 C75.03182817 -0.07628816 75.03182817 -0.07628816 90.63745117 14.86108398 C99.33342269 24.70558004 103.18234265 36.77688422 103.23384094 49.82601929 C103.24099625 51.07641495 103.24815155 52.32681061 103.25552368 53.61509705 C103.25836336 54.98794531 103.26107516 56.36079384 103.26367188 57.73364258 C103.26994311 59.1895107 103.27659049 60.64537724 103.28358459 62.10124207 C103.30454144 66.86753238 103.31497619 71.63382272 103.32495117 76.40014648 C103.32900126 78.04495892 103.33311826 79.68977118 103.33730125 81.33458328 C103.35633114 89.06062967 103.37056917 96.78666662 103.37891322 104.51273191 C103.3886906 113.41736353 103.4150323 122.32174691 103.45541412 131.22629106 C103.48559952 138.11990039 103.50038422 145.0134386 103.50369424 151.90711272 C103.50604107 156.01987669 103.51495424 160.13237478 103.54015541 164.2450676 C103.56348522 168.11443862 103.56764992 171.98336953 103.55739403 175.85279274 C103.55689982 177.26850285 103.56318635 178.68423502 103.57695007 180.09987831 C103.64938341 187.99477624 103.46336909 193.7998361 99.08666992 200.50170898 C94.15717275 205.43120616 88.32055147 207.8180177 81.39904785 207.90829468 C80.37104065 207.89918564 80.37104065 207.89918564 79.32226562 207.88989258 C78.20847786 207.89777802 78.20847786 207.89777802 77.07218933 207.90582275 C74.63539109 207.91894531 72.19925524 207.91030802 69.76245117 207.90014648 C68.05242285 207.90217052 66.34239538 207.9050847 64.63237 207.90884399 C61.05235558 207.91325779 57.47256628 207.90687083 53.89257812 207.89282227 C49.33465884 207.87579582 44.77727218 207.88553583 40.21937275 207.90353966 C36.68715007 207.91445873 33.15505041 207.91089312 29.62282372 207.90315628 C27.94413373 207.90117325 26.2654321 207.90354583 24.58675575 207.91059494 C8.29346704 207.96397413 -6.11836962 205.92165607 -18.66333008 194.50170898 C-29.90917733 182.50883058 -32.22773439 168.16111504 -32.21411133 152.29077148 C-32.22053902 150.59578018 -32.22053902 150.59578018 -32.22709656 148.86654663 C-32.23280363 146.49168565 -32.23336709 144.11680719 -32.22900391 141.74194336 C-32.22584467 138.14332761 -32.2493477 134.54553595 -32.2746582 130.94702148 C-32.32561673 112.81396493 -31.8163874 96.60914067 -18.66333008 82.68920898 C-5.89903018 70.77586241 9.10523284 67.60270404 26.08276367 67.36108398 C27.3002832 67.34174805 28.51780273 67.32241211 29.7722168 67.30249023 C32.30069676 67.26826823 34.82944407 67.25037911 37.3581543 67.24780273 C38.56665039 67.22331055 39.77514648 67.19881836 41.02026367 67.17358398 C42.11395264 67.16423828 43.2076416 67.15489258 44.33447266 67.14526367 C47.29265633 66.75850822 47.29265633 66.75850822 48.95239258 64.09301758 C50.7459958 59.99544878 50.13480103 57.83398424 49.08666992 53.50170898 C46.17438836 50.62859752 44.05506463 50.12842397 40.03027344 50.1328125 C39.02565567 50.12592911 38.0210379 50.11904572 36.98597717 50.11195374 C35.90674484 50.11811203 34.82751251 50.12427032 33.71557617 50.13061523 C31.4271632 50.11323467 29.13875178 50.09565027 26.8503418 50.07788086 C23.24476302 50.06780048 19.6392837 50.06421366 16.03369141 50.06591797 C12.55235077 50.06235078 9.07178002 50.03501828 5.59057617 50.00561523 C3.97476402 50.01788902 3.97476402 50.01788902 2.3263092 50.03041077 C-1.9818724 49.98750912 -5.14448473 49.85384783 -9.09082031 48.04638672 C-11.82282755 44.2318239 -11.63118299 40.87286024 -11.57739258 36.28295898 C-11.58217621 35.38806763 -11.58695984 34.49317627 -11.59188843 33.57116699 C-11.59528659 31.68162272 -11.5860899 29.79201958 -11.56518555 27.90258789 C-11.53841718 25.01111708 -11.56493442 22.12352788 -11.59692383 19.23217773 C-11.59361971 17.39492959 -11.58721344 15.55768385 -11.57739258 13.72045898 C-11.58751373 12.85682739 -11.59763489 11.9931958 -11.60806274 11.10339355 C-11.59230194 10.29575562 -11.57654114 9.48811768 -11.56030273 8.65600586 C-11.55632477 7.94859253 -11.5523468 7.2411792 -11.54824829 6.5123291 C-9.83687658 1.09286196 -5.10572056 0.00082828 0 0 Z M21.08666992 121.50170898 C20.59876593 124.37534084 20.4055694 126.64270069 20.45776367 129.50561523 C20.45535172 130.26591537 20.45293976 131.02621552 20.45045471 131.80955505 C20.45143086 133.41068763 20.4647692 135.01185492 20.48974609 136.61279297 C20.52412002 139.06065551 20.51038142 141.50491764 20.4909668 143.95288086 C20.49786418 145.51214098 20.50753561 147.07139181 20.52026367 148.63061523 C20.5153038 149.3598671 20.51034393 150.08911896 20.50523376 150.84046936 C20.58264275 154.18530067 20.86892887 156.19054431 22.80566406 158.95825195 C26.91294299 161.7374682 31.27579701 161.11704157 36.08666992 161.06420898 C37.0844043 161.08805664 38.08213867 161.1119043 39.11010742 161.13647461 C40.07174805 161.13454102 41.03338867 161.13260742 42.02416992 161.13061523 C43.33708008 161.13170288 43.33708008 161.13170288 44.67651367 161.1328125 C47.27316437 160.65002171 47.27316437 160.65002171 49.36767578 158.44677734 C51.48177884 154.82478825 51.68190916 151.83387437 51.65307617 147.75170898 C51.65927475 147.01597656 51.66547333 146.28024414 51.67185974 145.5222168 C51.67893843 143.97242552 51.67581791 142.42255788 51.66308594 140.87280273 C51.64920739 138.50809306 51.68332424 136.14733549 51.72143555 133.78295898 C51.72238677 132.27254135 51.72052776 130.7621188 51.71557617 129.25170898 C51.72883438 128.54949219 51.74209259 127.84727539 51.75575256 127.1237793 C51.68424086 123.33403229 51.16265092 121.6012498 48.84033203 118.55883789 C46.00101702 116.43772181 44.86485875 115.86270828 41.39916992 115.83764648 C40.53549805 115.83120117 39.67182617 115.82475586 38.78198242 115.81811523 C37.8925293 115.83745117 37.00307617 115.85678711 36.08666992 115.87670898 C35.1972168 115.85737305 34.30776367 115.83803711 33.39135742 115.81811523 C32.52768555 115.82456055 31.66401367 115.83100586 30.77416992 115.83764648 C29.6043457 115.84610596 29.6043457 115.84610596 28.41088867 115.85473633 C24.8045487 116.85860197 23.3315809 118.54484819 21.08666992 121.50170898 Z " fill="#142A73" transform="translate(320.913330078125,68.498291015625)"/>
<path d="M0 0 C0.80433472 -0.01260864 1.60866943 -0.02521729 2.43737793 -0.03820801 C3.72037781 -0.02606262 3.72037781 -0.02606262 5.02929688 -0.01367188 C5.92040161 -0.01749878 6.81150635 -0.02132568 7.72961426 -0.02526855 C9.60897963 -0.02798404 11.48838302 -0.02064828 13.36767578 -0.00390625 C16.23881561 0.01750927 19.10745331 -0.00371948 21.97851562 -0.02929688 C23.80794821 -0.02665353 25.63737925 -0.02152842 27.46679688 -0.01367188 C28.32213013 -0.0217688 29.17746338 -0.02986572 30.05871582 -0.03820801 C31.2652179 -0.01929504 31.2652179 -0.01929504 32.49609375 0 C33.54935852 0.00477356 33.54935852 0.00477356 34.62390137 0.00964355 C37.89213074 0.79115625 39.4642463 2.06060923 41.74804688 4.51757812 C42.27518827 7.29562865 42.47675459 9.48547489 42.4675293 12.26782227 C42.49306633 13.43189857 42.49306633 13.43189857 42.51911926 14.61949158 C42.56994009 17.18074116 42.58646811 19.74105681 42.60351562 22.30273438 C42.63400257 24.08349332 42.66693987 25.86421186 42.70222473 27.6448822 C42.78976032 32.33055613 42.84956081 37.01614745 42.9019165 41.70233154 C42.98961527 49.20670408 43.11570348 56.71045296 43.24862099 64.21413994 C43.29056532 66.83707499 43.31855054 69.45988937 43.34477234 72.08302307 C43.36838945 73.68759711 43.39236203 75.29216598 43.41674805 76.89672852 C43.42040375 77.62771759 43.42405945 78.35870667 43.42782593 79.11184692 C43.49547405 82.78936227 43.65189542 84.37335094 45.74804688 87.51757812 C49.74209463 88.84892738 53.43900323 88.81940725 57.62304688 88.89257812 C58.82767578 88.94865234 58.82767578 88.94865234 60.05664062 89.00585938 C60.83910156 89.01746094 61.6215625 89.0290625 62.42773438 89.04101562 C63.49096924 89.07074463 63.49096924 89.07074463 64.57568359 89.10107422 C68.04313105 88.16971892 69.50489735 86.266341 71.74804688 83.51757812 C72.22190695 80.75637131 72.39253009 78.61842943 72.328125 75.86914062 C72.33057724 75.11566345 72.33302948 74.36218628 72.33555603 73.58587646 C72.33772274 71.95605255 72.3284871 70.32618181 72.30906677 68.69647217 C72.27897557 66.11501426 72.28003755 63.53521169 72.28918457 60.95361328 C72.30309636 55.47472473 72.27836747 49.99637723 72.24804688 44.51757812 C72.21290338 38.16730047 72.19367093 31.81782601 72.21617126 25.46746826 C72.21678848 22.92713991 72.18761781 20.38826519 72.15734863 17.84814453 C72.15942347 16.28743226 72.16288933 14.72672101 72.16796875 13.16601562 C72.14324745 12.11072662 72.14324745 12.11072662 72.11802673 11.03411865 C72.16445935 7.25605245 72.68020007 5.60564924 75.01182556 2.57899475 C77.75316704 0.51372069 78.76881834 -0.10908367 82.10766602 -0.11352539 C82.93524918 -0.1260585 83.76283234 -0.13859161 84.61549377 -0.15150452 C85.9360099 -0.1316172 85.9360099 -0.1316172 87.28320312 -0.11132812 C88.19887558 -0.11374008 89.11454803 -0.11615204 90.05796814 -0.11863708 C91.98864078 -0.11765986 93.91934186 -0.10429603 95.84985352 -0.0793457 C98.80451535 -0.044992 101.75619273 -0.05870368 104.7109375 -0.078125 C106.58920543 -0.07122752 108.46746565 -0.06155602 110.34570312 -0.04882812 C111.6692556 -0.05626793 111.6692556 -0.05626793 113.01954651 -0.06385803 C119.11347524 0.05319906 119.11347524 0.05319906 122.27319336 2.36547852 C124.82738391 6.09254186 124.87655633 9.13930503 124.88848877 13.54118347 C124.89419891 14.80113632 124.89990906 16.06108917 124.90579224 17.35922241 C124.90703766 18.75860586 124.90816274 20.15798942 124.90917969 21.55737305 C124.91380871 23.02937443 124.91883348 24.50137462 124.92422485 25.97337341 C124.93735429 29.97827412 124.94379642 33.98315805 124.94823551 37.98807693 C124.9511691 40.49567307 124.95527474 43.00326468 124.95973969 45.51085854 C124.97342427 53.37148651 124.98308273 61.23210404 124.98694158 69.0927431 C124.99140629 78.13651016 125.0088759 87.18012488 125.03794217 96.22384566 C125.0596676 103.22962152 125.06965183 110.23535489 125.07098269 117.24116403 C125.07202422 121.41677319 125.07778962 125.59223935 125.09580231 129.76781273 C125.11246871 133.70852198 125.11435012 137.6489837 125.1056633 141.58971596 C125.10490237 143.02301834 125.10910803 144.45633505 125.11912155 145.88960266 C125.23945265 164.2137668 122.58979033 181.47106356 109.41992188 195.19335938 C95.98264257 206.88222076 80.83267763 208.99742239 63.52539062 208.95117188 C62.00655385 208.9557455 60.48771913 208.96105453 58.96888733 208.96705627 C55.81486491 208.97591145 52.66109686 208.97364538 49.50708008 208.96362305 C45.46854923 208.95203811 41.4308805 208.97252656 37.39246273 209.00154018 C34.26889006 209.01986931 31.14552646 209.01961817 28.02191353 209.01390266 C26.53197568 209.0137496 25.04202353 209.01978167 23.55213737 209.03219414 C21.47747652 209.04707203 19.40444373 209.03646055 17.32983398 209.01928711 C16.15214951 209.01912094 14.97446503 209.01895477 13.76109314 209.01878357 C10.13292606 208.4152558 8.99391907 207.36534382 6.74804688 204.51757812 C5.07796196 201.1774083 5.54174038 197.42274663 5.50976562 193.74804688 C5.50169388 192.87489334 5.49362213 192.00173981 5.48530579 191.10212708 C5.47146324 189.25194282 5.46074185 187.40173301 5.45288086 185.55151367 C5.43567767 182.72655615 5.39179521 179.90277191 5.34765625 177.078125 C5.3375284 175.28060757 5.32901259 173.48308018 5.32226562 171.68554688 C5.30475754 170.84267624 5.28724945 169.9998056 5.26921082 169.13139343 C5.28421122 165.06029327 5.42439738 163.02995737 7.6496582 159.50708008 C10.87872812 156.44556865 12.69969447 156.39121244 17.05224609 156.37573242 C18.71439651 156.36518074 18.71439651 156.36518074 20.41012573 156.35441589 C21.61218658 156.35025162 22.81424744 156.34608734 24.05273438 156.34179688 C26.58008649 156.31860209 29.10743027 156.2944849 31.63476562 156.26953125 C35.63336044 156.23436958 39.63164499 156.20336612 43.63037109 156.19165039 C47.47987272 156.17621439 51.32847029 156.13603207 55.17773438 156.09179688 C56.97475296 156.0946595 56.97475296 156.0946595 58.80807495 156.09757996 C60.47968185 156.07284355 60.47968185 156.07284355 62.18505859 156.04760742 C63.16497772 156.04174118 64.14489685 156.03587494 65.1545105 156.02983093 C68.48656432 155.37171256 69.68477574 154.16878351 71.74804688 151.51757812 C72.19280768 148.40425246 72.42858227 146.49163838 70.59106445 143.86157227 C67.9800749 141.95754557 66.03379437 142.11662178 62.82226562 142.07617188 C61.04819336 142.0389502 61.04819336 142.0389502 59.23828125 142.00097656 C57.98337891 141.98583008 56.72847656 141.97068359 55.43554688 141.95507812 C35.44119453 141.45446081 18.99086624 140.10643111 3.84960938 125.71289062 C-5.64257445 115.72329979 -9.54783098 103.45543372 -9.55834961 89.95214844 C-9.56667313 89.03081619 -9.57499664 88.10948395 -9.58357239 87.16023254 C-9.60751639 84.13867891 -9.61642163 81.11734131 -9.62304688 78.09570312 C-9.63201911 75.98679543 -9.64114106 73.87788836 -9.65040588 71.76898193 C-9.66685166 67.36110896 -9.674589 62.9533116 -9.67749023 58.54541016 C-9.68289551 52.89363477 -9.72068282 47.2425668 -9.7662344 41.59099197 C-9.79593532 37.24159115 -9.80321214 32.89236301 -9.80421638 28.54286957 C-9.80842597 26.45840942 -9.82088972 24.3739491 -9.84173393 22.28958893 C-9.8685273 19.3809982 -9.86386096 16.4740799 -9.85131836 13.56542969 C-9.86615265 12.70405899 -9.88098694 11.84268829 -9.89627075 10.95521545 C-9.84551036 6.83100565 -9.81511768 5.14555168 -6.98023987 1.98443604 C-4.34232939 0.56616875 -2.94413312 0.01334327 0 0 Z " fill="#142A73" transform="translate(451.251953125,68.482421875)"/>
<path d="M0 0 C1.27625496 -0.0076664 1.27625496 -0.0076664 2.57829285 -0.01548767 C5.39862054 -0.02941506 8.21870443 -0.02842329 11.0390625 -0.02612305 C13.00382579 -0.03001079 14.96858824 -0.03434563 16.93334961 -0.03910828 C21.05927242 -0.0465791 25.18510972 -0.04627483 29.31103516 -0.04101562 C34.57535345 -0.03524701 39.83931693 -0.05208442 45.10357666 -0.0753603 C49.16674824 -0.09016733 53.229836 -0.09095943 57.29302979 -0.08785057 C59.2321238 -0.08836119 61.17122282 -0.09354971 63.11029053 -0.10366249 C79.7171191 -0.17958118 95.01706099 1.31085113 107.78125 13.1965332 C116.71976194 23.06227667 120.74220884 34.4446565 120.82519531 47.62451172 C120.83480286 48.86342667 120.8444104 50.10234161 120.85430908 51.37879944 C120.85916022 52.72038587 120.86343827 54.06197449 120.8671875 55.40356445 C120.87142857 56.43009786 120.87142857 56.43009786 120.87575531 57.47736931 C120.89070488 61.10389459 120.89995925 64.73038058 120.90429688 68.35693359 C120.90975474 72.06616231 120.9337375 75.77501899 120.96226883 79.48413181 C120.98108233 82.3678434 120.98611077 85.25146902 120.98763275 88.13523674 C120.99205639 90.15616515 121.01061354 92.17704719 121.02960205 94.19789124 C120.99437034 109.00130024 118.27482502 122.62827717 107.7890625 133.6496582 C93.66508597 146.68308287 78.10562844 146.83616605 59.8515625 146.5246582 C57.79103307 146.5045539 55.7304846 146.48631011 53.66992188 146.4699707 C48.66749112 146.4263067 43.66599159 146.35749797 38.6640625 146.2746582 C38.67072433 146.9798761 38.67738617 147.68509399 38.68424988 148.41168213 C38.74439474 155.06209019 38.79005393 161.7124222 38.81949902 168.36304092 C38.83514608 171.78210312 38.8563662 175.20094033 38.89038086 178.61987305 C38.92925235 182.55164891 38.94377971 186.4833341 38.95703125 190.4152832 C38.97251511 191.64144348 38.98799896 192.86760376 39.00395203 194.13092041 C39.00417862 195.27180115 39.00440521 196.41268188 39.00463867 197.58813477 C39.01130051 198.5918512 39.01796234 199.59556763 39.02482605 200.62969971 C38.60367983 203.71735719 37.82694157 205.05871583 35.6640625 207.2746582 C31.71632556 208.59057052 27.91492135 208.47688781 23.796875 208.51293945 C22.92513641 208.5210112 22.05339783 208.52908295 21.15524292 208.53739929 C19.31103496 208.55122482 17.46680158 208.56195382 15.62255859 208.56982422 C12.80647268 208.5870517 9.99155665 208.63095226 7.17578125 208.67504883 C5.38282112 208.68517498 3.58985103 208.69369133 1.796875 208.70043945 C0.95714142 208.71794754 0.11740784 208.73545563 -0.74777222 208.75349426 C-4.76770453 208.73862193 -6.83931163 208.57826822 -10.34423828 206.43554688 C-13.91116051 202.56562427 -13.48001287 198.55235394 -13.46965027 193.58255005 C-13.47191583 192.79130545 -13.47418138 192.00006084 -13.47651559 191.18483913 C-13.48286227 188.52482271 -13.4820258 185.86485715 -13.48120117 183.20483398 C-13.48419225 181.30119765 -13.48759466 179.39756192 -13.49137878 177.493927 C-13.50022829 172.31624487 -13.5025573 167.13857926 -13.50319457 161.96089029 C-13.50414303 157.64170878 -13.5078206 153.32253112 -13.51136667 149.00335109 C-13.51951487 138.8146507 -13.52195057 128.62595914 -13.52124023 118.43725586 C-13.52063936 107.92006198 -13.53119228 97.40291939 -13.5469839 86.88573849 C-13.56005083 77.86231752 -13.56542449 68.83891333 -13.56478482 59.81548297 C-13.56452958 54.42351091 -13.5673951 49.03158439 -13.57796288 43.63962173 C-13.58762957 38.56878462 -13.58773284 33.49803673 -13.58044624 28.4271965 C-13.57939862 26.5651766 -13.5817738 24.70315118 -13.5878067 22.84114075 C-13.59550449 20.30089948 -13.59089652 17.76096806 -13.58317566 15.22073364 C-13.58831922 14.48250024 -13.59346279 13.74426684 -13.59876221 12.98366272 C-13.5719082 8.99021985 -13.27823322 5.80175423 -11.3359375 2.2746582 C-7.5173535 -0.27106446 -4.42557928 -0.01363431 0 0 Z M38.6640625 52.2746582 C38.6640625 66.1346582 38.6640625 79.9946582 38.6640625 94.2746582 C44.9753125 94.4293457 44.9753125 94.4293457 51.4140625 94.5871582 C52.7350293 94.63267822 54.05599609 94.67819824 55.41699219 94.72509766 C56.46274414 94.73758545 57.50849609 94.75007324 58.5859375 94.76293945 C60.18840332 94.80221558 60.18840332 94.80221558 61.82324219 94.84228516 C64.8139184 94.49231742 64.8139184 94.49231742 67.00854492 92.20117188 C69.06577796 88.56453238 69.19512412 86.13020658 69.23046875 81.9621582 C69.23666733 81.27081787 69.24286591 80.57947754 69.24925232 79.8671875 C69.25632797 78.41155397 69.25321578 76.95583914 69.24047852 75.50024414 C69.22659777 73.28029834 69.26072039 71.06456175 69.29882812 68.8449707 C69.29977935 67.42569884 69.29792029 66.00642174 69.29296875 64.5871582 C69.29369385 63.30454102 69.29441895 62.02192383 69.29516602 60.70043945 C68.49259846 56.34391025 67.21390671 54.87279909 63.6640625 52.2746582 C60.78167151 51.59421463 60.78167151 51.59421463 57.70703125 51.78637695 C56.70438232 51.79886475 55.7017334 51.81135254 54.66870117 51.82421875 C53.40904541 51.86973877 52.14938965 51.91525879 50.8515625 51.9621582 C46.8296875 52.0652832 42.8078125 52.1684082 38.6640625 52.2746582 Z " fill="#142A73" transform="translate(157.3359375,68.725341796875)"/>
<path d="M0 0 C1.46948242 1.74291992 1.46948242 1.74291992 2.85546875 4.23046875 C3.38760986 5.16544189 3.91975098 6.10041504 4.46801758 7.0637207 C5.03544678 8.09456787 5.60287598 9.12541504 6.1875 10.1875 C7.42340795 12.37300196 8.6604398 14.55786862 9.8984375 16.7421875 C10.38486473 17.60778038 10.38486473 17.60778038 10.88111877 18.49085999 C13.42151046 23.00806422 16.02808178 27.4832976 18.6640625 31.9453125 C19.05191422 32.60233658 19.43976593 33.25936066 19.83937073 33.93629456 C21.37751364 36.54050695 22.916758 39.14406378 24.45761108 41.74667358 C25.53303303 43.56521776 26.60478627 45.3858774 27.67578125 47.20703125 C28.29364502 48.2535083 28.91150879 49.29998535 29.5480957 50.37817383 C31 53 31 53 32 56 C40.91 56 49.82 56 59 56 C57.3747457 64.93889864 55.40073702 73.27732217 53 82 C46.73 82 40.46 82 34 82 C33.66125854 84.33396851 33.66125854 84.33396851 33.31567383 86.71508789 C31.74244768 96.1220894 29.28861529 105.31878894 26.94921875 114.55859375 C26.44793827 116.55368404 25.94711804 118.54889001 25.44673157 120.54420471 C24.13264701 125.77971372 22.81312844 131.01383688 21.4921875 136.24761963 C19.38812623 144.5883777 17.292767 152.93132689 15.19669533 161.27409554 C14.47329666 164.15035898 13.74781118 167.02608884 13.02189636 169.90171814 C10.45958845 180.07043063 7.95914678 190.24969232 5.58821392 200.46499538 C5.39404794 201.29353559 5.19988195 202.12207579 4.99983215 202.97572327 C4.74550273 204.07200342 4.74550273 204.07200342 4.48603535 205.19043064 C4 207 4 207 3 209 C-7.89 209 -18.78 209 -30 209 C-28.8751114 198.87600262 -28.8751114 198.87600262 -27.87670898 194.97094727 C-27.65655624 194.09716934 -27.4364035 193.22339142 -27.20957947 192.32313538 C-26.97412918 191.41341476 -26.73867889 190.50369415 -26.49609375 189.56640625 C-26.2533522 188.60725815 -26.01061066 187.64811005 -25.76051331 186.65989685 C-24.9918059 183.62596661 -24.21512577 180.59415543 -23.4375 177.5625 C-22.65758836 174.50554422 -21.87939093 171.44817001 -21.10377502 168.39012146 C-20.62246408 166.49411698 -20.13844668 164.5987971 -19.651474 162.70423889 C-19.43447342 161.85252609 -19.21747284 161.00081329 -18.99389648 160.12329102 C-18.80149887 159.37322281 -18.60910126 158.6231546 -18.41087341 157.85035706 C-17.92774298 155.99049678 -17.92774298 155.99049678 -18 154 C-18.69971924 154.02094727 -19.39943848 154.04189453 -20.12036133 154.06347656 C-23.35092264 154.14762934 -26.58125226 154.19897071 -29.8125 154.25 C-30.91271484 154.28351563 -32.01292969 154.31703125 -33.14648438 154.3515625 C-41.41610334 154.44913912 -49.39977816 153.51567998 -56.16430664 148.34594727 C-57.93489421 146.72380871 -57.93489421 146.72380871 -60.296875 147.29296875 C-61.51117188 147.73576172 -61.51117188 147.73576172 -62.75 148.1875 C-67.13137135 149.73511343 -71.48505651 150.90968918 -76 152 C-75.16082031 153.2065625 -75.16082031 153.2065625 -74.3046875 154.4375 C-68.70242319 162.61078859 -63.54953869 170.99992224 -58.5625 179.5625 C-57.95970215 180.59697266 -57.3569043 181.63144531 -56.73583984 182.69726562 C-54.01421103 187.40237639 -51.34038363 192.092744 -49 197 C-58.7588719 203.08645431 -68.90625522 208.49619098 -79 214 C-82.2804395 211.00540049 -84.29840215 208.01228797 -86.3984375 204.109375 C-86.70981659 203.53665359 -87.02119568 202.96393219 -87.3420105 202.37385559 C-88.01056271 201.14322965 -88.6761364 199.91098174 -89.33898926 198.67727661 C-91.1090145 195.38452287 -92.90225683 192.10447267 -94.6953125 188.82421875 C-95.05774048 188.16030624 -95.42016846 187.49639374 -95.7935791 186.81236267 C-99.16295381 180.66031113 -102.68523412 174.6032583 -106.25 168.5625 C-110.89691377 160.65058259 -115.48258435 152.70938502 -119.9375 144.6875 C-120.4644043 143.75558838 -120.99130859 142.82367676 -121.53417969 141.86352539 C-122.00629883 141.0049292 -122.47841797 140.14633301 -122.96484375 139.26171875 C-123.3837085 138.50850342 -123.80257324 137.75528809 -124.23413086 136.97924805 C-125 135 -125 135 -124 132 C-122.05002335 130.4821532 -120.12915149 129.11669935 -118.06640625 127.76953125 C-117.47327133 127.37424728 -116.88013641 126.97896332 -116.26902771 126.57170105 C-115.01483117 125.73836296 -113.75800496 124.90897107 -112.4987793 124.08325195 C-110.5674921 122.81577624 -108.64558885 121.53498346 -106.72460938 120.25195312 C-105.50574023 119.444509 -104.28635615 118.63784154 -103.06640625 117.83203125 C-102.20070763 117.25555595 -102.20070763 117.25555595 -101.31752014 116.66743469 C-97.23159006 114 -97.23159006 114 -95 114 C-93.40485909 116.47018964 -92.03800484 119.03487069 -90.6328125 121.6171875 C-88.89068608 124.1595251 -87.86828843 124.99130918 -85 126 C-81.59166429 126.36258891 -79.48234313 126.20191108 -76.3125 124.875 C-71.38954647 120.88341606 -70.19609685 114.66322893 -68.73828125 108.7578125 C-68.56437866 108.07581787 -68.39047607 107.39382324 -68.21130371 106.69116211 C-67.57082325 104.1710138 -66.94234676 101.64782694 -66.3125 99.125 C-64.889375 93.47375 -63.46625 87.8225 -62 82 C-79.16 82 -96.32 82 -114 82 C-108 57 -108 57 -107 56 C-103.83457207 55.87455974 -100.68992964 55.8138594 -97.52319336 55.79467773 C-96.52818314 55.78477814 -95.53317291 55.77487854 -94.50801086 55.76467896 C-91.20197979 55.7329596 -87.89593433 55.70826545 -84.58984375 55.68359375 C-82.30440384 55.66303322 -80.01896782 55.642037 -77.73353577 55.62062073 C-71.70505914 55.56530693 -65.67654767 55.51593884 -59.64801025 55.46777344 C-53.50163658 55.41762619 -47.35531379 55.36190484 -41.20898438 55.30664062 C-29.13936633 55.19894528 -17.0697042 55.09752574 -5 55 C-5.75481659 54.11626205 -6.50963318 53.23252411 -7.287323 52.32200623 C-8.28783515 51.14631097 -9.28824692 49.97053028 -10.28857422 48.79467773 C-10.78487839 48.21414391 -11.28118256 47.63361008 -11.79252625 47.03548431 C-15.57722353 42.58067633 -18.97220315 37.98774483 -22.125 33.0625 C-22.61581055 32.30960693 -23.10662109 31.55671387 -23.61230469 30.78100586 C-24.60301853 29.25877178 -25.59009961 27.73416621 -26.57324219 26.20703125 C-27.95175047 24.07463651 -29.35098633 21.95753929 -30.7578125 19.84375 C-31.58901107 18.58364283 -32.41976665 17.32324331 -33.25 16.0625 C-33.6330127 15.48959229 -34.01602539 14.91668457 -34.41064453 14.32641602 C-36.16476038 11.62787104 -37 10.29305508 -37 7 C-32.37464663 5.99786549 -27.74817954 5.0011069 -23.12060547 4.00927734 C-21.54704666 3.67122959 -19.97380031 3.33172391 -18.40087891 2.99072266 C-16.13785394 2.50037675 -13.87375118 2.01531257 -11.609375 1.53125 C-10.90818542 1.37813354 -10.20699585 1.22501709 -9.48455811 1.06726074 C-6.2094211 0.37221687 -3.37102126 0 0 0 Z M-29 82 C-31.52639293 90.84237525 -33.98475079 99.64279606 -36.1875 108.5625 C-36.44724609 109.60212891 -36.70699219 110.64175781 -36.97460938 111.71289062 C-38.0723848 116.12952199 -39.13455083 120.5311078 -40 125 C-30.01971535 126.73570168 -20.52280859 126.39485094 -10.828125 123.30859375 C-8.04715573 121.31794267 -7.90454743 119.23015988 -7.125 115.9375 C-6.97063477 115.30642334 -6.81626953 114.67534668 -6.65722656 114.02514648 C-6.30145598 112.55989749 -5.95380556 111.09266378 -5.61230469 109.62402344 C-4.89733437 106.56002783 -4.15626233 103.50282448 -3.4140625 100.4453125 C-1.92290281 94.30135102 -0.46294667 88.15102578 1 82 C-8.9 82 -18.8 82 -29 82 Z " fill="#221E1F" transform="translate(573,297)"/>
<path d="M0 0 C0.66 0 1.32 0 2 0 C2.27339706 0.54901474 2.54679413 1.09802948 2.82847595 1.66368103 C5.6647476 7.35828345 8.50379353 13.05149631 11.34448242 18.74389648 C12.40542236 20.87081684 13.46564529 22.99809501 14.52514648 25.12573242 C16.04484397 28.17720541 17.56708358 31.2273982 19.08984375 34.27734375 C19.56590561 35.23462875 20.04196747 36.19191376 20.53245544 37.1782074 C20.97283646 38.05904495 21.41321747 38.93988251 21.86694336 39.84741211 C22.25555038 40.62684677 22.64415741 41.40628143 23.04454041 42.20933533 C23.87176459 43.96875768 23.87176459 43.96875768 25 45 C25.14589569 44.46573395 25.29179138 43.9314679 25.44210815 43.38101196 C26.9590455 37.83119983 28.48531818 32.28401695 30.01708984 26.73828125 C30.58786054 24.66700411 31.15623058 22.5950639 31.72216797 20.52246094 C32.53506477 17.54705932 33.35650597 14.57413274 34.1796875 11.6015625 C34.55793167 10.20618759 34.55793167 10.20618759 34.94381714 8.78262329 C35.1839151 7.92188202 35.42401306 7.06114075 35.67138672 6.17431641 C35.88012421 5.41486725 36.08886169 4.65541809 36.30392456 3.87295532 C37 2 37 2 39 0 C45.75645673 12.5402616 52.15097945 25.25027206 58.5 38 C63.67743731 48.39665924 68.85291691 58.78345875 74.33349609 69.0246582 C80.82027029 81.21050651 86.85880563 93.63761574 93 106 C86.25902482 114.00725165 79.02161314 121.35249199 71.0625 128.15625 C68.61075311 130.34796313 66.31114427 132.66067104 64 135 C61.10408042 137.93118191 58.19757429 140.76403174 55.0625 143.4375 C51.71074927 146.30172335 48.59443244 149.36333716 45.5 152.5 C41.81005412 156.24030338 38.02496302 159.7823935 34.02734375 163.19140625 C31.58571366 165.36958492 29.29951968 167.67248008 27 170 C24.10408042 172.93118191 21.19757429 175.76403174 18.0625 178.4375 C14.71074927 181.30172335 11.59443244 184.36333716 8.5 187.5 C4.8132148 191.23709956 1.03478868 194.77958929 -2.96484375 198.1796875 C-5.46244479 200.41362625 -7.78207384 202.79219844 -10.125 205.1875 C-13.55608815 208.66624215 -16.77632594 211.55471502 -21 214 C-19.3359224 204.80185679 -16.86672058 195.87459949 -14.375 186.875 C-13.95020359 185.3308164 -13.52572195 183.78654618 -13.1015625 182.2421875 C-12.07133305 178.49378349 -11.03685647 174.74657604 -10 171 C-10.33 170.67 -10.66 170.34 -11 170 C-11.7734375 170.78503906 -12.546875 171.57007813 -13.34375 172.37890625 C-18.42487846 177.51240061 -23.50278598 182.54386359 -29.0078125 187.2265625 C-32.34046851 190.19327981 -35.42001651 193.41292191 -38.5546875 196.5859375 C-41.28299683 199.27938026 -44.12962476 201.77731255 -47.046875 204.26171875 C-49.96299129 206.85706225 -52.64447958 209.67059908 -55.3359375 212.49609375 C-57 214 -57 214 -59 214 C-56.15733702 202.37028842 -53.07353214 190.8204911 -49.87109375 179.28515625 C-49.36719837 177.46448029 -48.86346484 175.64375952 -48.35987854 173.82299805 C-47.00360439 168.92141309 -45.64476189 164.02054366 -44.28533936 159.11983109 C-43.14558488 155.00984636 -42.00730763 150.89945308 -40.86899376 146.78906918 C-29.93918294 107.32412168 -18.96351515 67.87187238 -7.97462273 28.42333984 C-7.45642777 26.56307723 -6.93829488 24.70279733 -6.42022896 22.84249878 C-5.71138792 20.29735578 -5.00223092 17.75230105 -4.29296875 15.20727539 C-4.08847831 14.47288774 -3.88398787 13.73850008 -3.67330074 12.98185825 C-2.46549878 8.64970824 -1.23986799 4.32308559 0 0 Z " fill="#F27820" transform="translate(843,557)"/>
<path d="M0 0 C1.6887207 1.04418945 1.6887207 1.04418945 3 3 C3.26159322 5.79989129 3.34904338 8.37227929 3.29296875 11.16796875 C3.28872391 11.96278152 3.28447906 12.7575943 3.28010559 13.57649231 C3.2633193 16.11384021 3.22566824 18.65039238 3.1875 21.1875 C3.17245305 22.90819165 3.15876466 24.62889576 3.14648438 26.34960938 C3.11341607 30.56671262 3.06163495 34.78322142 3 39 C3.6705542 38.97905273 4.3411084 38.95810547 5.03198242 38.93652344 C8.0836678 38.85313973 11.13511317 38.80126984 14.1875 38.75 C15.77014648 38.69972656 15.77014648 38.69972656 17.38476562 38.6484375 C18.91713867 38.62910156 18.91713867 38.62910156 20.48046875 38.609375 C21.88655396 38.5779541 21.88655396 38.5779541 23.32104492 38.54589844 C27.06169573 39.17996483 28.5266919 40.09839202 31 43 C31.74032487 46.20619868 31.70076471 49.34205259 31.6640625 52.62109375 C31.66884613 53.55800552 31.67362976 54.4949173 31.67855835 55.46022034 C31.68195752 57.43972453 31.67275383 59.41928485 31.65185547 61.39868164 C31.62511959 64.42396763 31.65158658 67.44553342 31.68359375 70.47070312 C31.68028907 72.39584151 31.67388162 74.32097757 31.6640625 76.24609375 C31.67924423 77.59942055 31.67924423 77.59942055 31.69473267 78.98008728 C31.67897186 79.82769119 31.66321106 80.6752951 31.64697266 81.54858398 C31.64100571 82.65966774 31.64100571 82.65966774 31.63491821 83.79319763 C30.57727897 87.46926289 29.12487257 88.78821373 26 91 C22.20908997 91.60592933 18.5139234 91.47162829 14.6875 91.3125 C13.66076172 91.28994141 12.63402344 91.26738281 11.57617188 91.24414062 C9.0492821 91.18537575 6.52539745 91.10327849 4 91 C4.00184359 91.77452641 4.00368717 92.54905281 4.00558662 93.34704971 C4.04973448 112.18356201 4.08284138 131.020064 4.10362434 149.85661697 C4.11394168 158.96579088 4.12801075 168.07493027 4.15087891 177.18408203 C4.17079878 185.12261152 4.18371311 193.06111601 4.18817699 200.99966979 C4.19078675 205.20397647 4.19693032 209.40821164 4.21146011 213.61249542 C4.22502186 217.56867406 4.2292255 221.52475164 4.22621536 225.48095131 C4.22676616 226.93380342 4.23075201 228.38665886 4.23841095 229.83949089 C4.24834959 231.8217818 4.24478009 233.80412677 4.24050903 235.78643799 C4.24235262 236.89627674 4.24419621 238.00611549 4.24609566 239.14958572 C4.00042444 241.99508395 3.54943655 243.625674 2 246 C-0.69669451 247.77443901 -2.85097214 248.25504632 -6.04663086 248.29052734 C-6.83102036 248.30328705 -7.61540985 248.31604675 -8.42356873 248.32919312 C-9.26218948 248.33141876 -10.10081024 248.33364441 -10.96484375 248.3359375 C-11.83516739 248.3425943 -12.70549103 248.3492511 -13.60218811 248.35610962 C-15.4404184 248.36622138 -17.27868529 248.3709271 -19.11694336 248.37060547 C-21.92428194 248.37497941 -24.73004874 248.41131543 -27.53710938 248.44921875 C-29.32551547 248.45508714 -31.11392901 248.45905638 -32.90234375 248.4609375 C-33.73894028 248.47530853 -34.5755368 248.48967957 -35.43748474 248.50448608 C-36.2250264 248.49833282 -37.01256805 248.49217957 -37.82397461 248.48583984 C-38.51140244 248.48868988 -39.19883026 248.49153992 -39.90708923 248.49447632 C-43.06969952 247.74727012 -44.69432267 246.26296579 -47 244 C-47.61523914 241.11835098 -47.61523914 241.11835098 -47.60127258 237.71051025 C-47.61158257 235.77121391 -47.61158257 235.77121391 -47.62210083 233.79273987 C-47.60440609 232.3621463 -47.58623205 230.93155859 -47.56762695 229.50097656 C-47.56621644 227.99301704 -47.56700854 226.48505408 -47.56983948 224.97709656 C-47.57127492 220.88418814 -47.54186505 216.79201138 -47.50696969 212.69927311 C-47.47572725 208.42184718 -47.47277713 204.14440474 -47.46684265 199.86688232 C-47.45129795 191.76722192 -47.41026115 183.66789868 -47.3600952 175.56838679 C-47.30422112 166.3472354 -47.27672013 157.12606796 -47.25161803 147.90478945 C-47.19934573 128.93633509 -47.1113914 109.96819465 -47 91 C-48.05127075 91.0314209 -48.05127075 91.0314209 -49.1237793 91.06347656 C-52.31153919 91.14683048 -55.49906952 91.19872139 -58.6875 91.25 C-59.79029297 91.28351563 -60.89308594 91.31703125 -62.02929688 91.3515625 C-70.16453303 91.44987351 -70.16453303 91.44987351 -74.22909546 89.26123047 C-76.18447373 86.76444941 -76.63059706 85.70182413 -76.64697266 82.5703125 C-76.66273346 81.7026123 -76.67849426 80.83491211 -76.69473267 79.94091797 C-76.67955093 78.54703857 -76.67955093 78.54703857 -76.6640625 77.125 C-76.66884613 76.16352051 -76.67362976 75.20204102 -76.67855835 74.21142578 C-76.68195754 72.1806474 -76.67275379 70.14981432 -76.65185547 68.11914062 C-76.62509021 65.01047776 -76.65160265 61.90542555 -76.68359375 58.796875 C-76.68028966 56.8229087 -76.67388343 54.84894464 -76.6640625 52.875 C-76.67418365 51.94574707 -76.68430481 51.01649414 -76.69473267 50.05908203 C-76.57824136 43.64573345 -76.57824136 43.64573345 -73.69287109 40.42358398 C-70.17878467 38.56586522 -66.89112228 38.29606338 -63 38.0625 C-49.92990107 36.85030275 -39.86798408 32.98145294 -31 23 C-28.09495459 19.3803539 -25.28313397 15.69350584 -22.55273438 11.94042969 C-16.84582607 4.14571455 -10.3482404 -2.73349746 0 0 Z " fill="#00BCF0" transform="translate(671,30)"/>
<path d="M0 0 C84.81 0 169.62 0 257 0 C257 16.17 257 32.34 257 49 C168.89 49 80.78 49 -10 49 C-8.87481751 38.87335758 -8.87481751 38.87335758 -8.16796875 35.52172852 C-8.01110596 34.7680751 -7.85424316 34.01442169 -7.69262695 33.2379303 C-7.52593506 32.45945236 -7.35924316 31.68097443 -7.1875 30.87890625 C-7.01371826 30.05293442 -6.83993652 29.22696259 -6.66088867 28.3759613 C-6.29649123 26.64872437 -5.93001395 24.92192499 -5.56152344 23.19555664 C-4.99652443 20.54620258 -4.43920448 17.89531418 -3.8828125 15.24414062 C-3.52649043 13.55980084 -3.16973532 11.87555258 -2.8125 10.19140625 C-2.56246216 9.00243492 -2.56246216 9.00243492 -2.30737305 7.78944397 C-1.11561323 2.23122646 -1.11561323 2.23122646 0 0 Z " fill="#00BBF1" transform="translate(679,370)"/>
<path d="M0 0 C85.14 0 170.28 0 258 0 C257.36677112 6.96551767 256.6929399 13.357784 255.1875 20.09765625 C255.01371826 20.89860214 254.83993652 21.69954803 254.66088867 22.52476501 C254.29755586 24.19321839 253.93108466 25.86099133 253.56152344 27.52807617 C252.99460999 30.08682771 252.43795795 32.64765643 251.8828125 35.20898438 C251.52662893 36.83867013 251.16987915 38.46823226 250.8125 40.09765625 C250.56246216 41.24440575 250.56246216 41.24440575 250.30737305 42.4143219 C249.11666102 47.76667796 249.11666102 47.76667796 248 50 C166.16 50 84.32 50 0 50 C0 33.5 0 17 0 0 Z " fill="#193280" transform="translate(146,419)"/>
<path d="M0 0 C0.76166977 0.00222061 1.52333954 0.00444122 2.30809021 0.00672913 C3.16890701 0.00680466 4.02972382 0.00688019 4.91662598 0.00695801 C5.8520372 0.01211929 6.78744843 0.01728058 7.75120544 0.02259827 C8.70422043 0.02401321 9.65723541 0.02542816 10.63912964 0.02688599 C13.69605085 0.032503 16.75289996 0.04505836 19.80979919 0.05775452 C21.87685543 0.06276733 23.94391281 0.06733061 26.01097107 0.07142639 C31.08977507 0.08247795 36.16852489 0.09975397 41.24729919 0.12025452 C39.71668731 8.78271048 37.39664224 17.21140093 35.04808044 25.67884827 C34.62042025 27.23069348 34.19306053 28.78262152 33.76597595 30.33462524 C32.60961214 34.53322737 31.4488424 38.73059982 30.28722 42.92774963 C29.0594215 47.36688036 27.83567872 51.8071292 26.61131287 56.24720764 C23.49614118 67.53993021 20.37258375 78.83032715 17.24729919 90.12025452 C16.85961365 91.52085995 16.85961365 91.52085995 16.46409607 92.94976044 C11.74000564 110.01626784 7.01360414 127.08213531 2.27781677 144.145401 C1.60059451 146.58605373 0.92339783 149.02671355 0.24620628 151.4673748 C-0.19525794 153.05805387 -0.63688438 154.64868793 -1.07868004 156.23927498 C-3.68523398 165.62378182 -6.2733361 175.01304389 -8.83717346 184.40931702 C-9.34862463 186.28074964 -9.86012412 188.15216907 -10.37167358 190.02357483 C-11.35282333 193.61307447 -12.32958501 197.20373066 -13.30401611 200.7950592 C-13.74548145 202.41131653 -14.18710771 204.02752991 -14.62892151 205.64369202 C-14.93055552 206.76247238 -14.93055552 206.76247238 -15.23828316 207.90385437 C-16.63901648 213.00657019 -16.63901648 213.00657019 -17.75270081 214.12025452 C-19.10365063 214.21294451 -20.45937171 214.23772778 -21.81349182 214.23377991 C-22.67430862 214.23370438 -23.53512543 214.23362885 -24.42202759 214.23355103 C-25.35743881 214.22838974 -26.29285004 214.22322845 -27.25660706 214.21791077 C-28.20962204 214.21649582 -29.16263702 214.21508087 -30.14453125 214.21362305 C-33.20145246 214.20800604 -36.25830157 214.19545067 -39.31520081 214.18275452 C-41.38225704 214.17774171 -43.44931442 214.17317842 -45.51637268 214.16908264 C-50.59517668 214.15803108 -55.67392651 214.14075506 -60.75270081 214.12025452 C-59.41702675 205.77248955 -57.39356271 197.73111107 -55.09645081 189.60072327 C-54.72179275 188.26028114 -54.34761202 186.91970552 -53.97386169 185.57901001 C-53.16518243 182.68153258 -52.35352305 179.78491331 -51.539505 176.88893127 C-50.22610673 172.21582374 -48.91961223 167.54080405 -47.61451721 162.8653717 C-47.15580753 161.22221374 -46.69709781 159.57905578 -46.23838806 157.93589783 C-45.89054323 156.6897854 -45.89054323 156.6897854 -45.53567123 155.41849899 C-44.81337174 152.83182015 -44.09042664 150.24532244 -43.36735535 147.65885925 C-37.52583348 126.75769106 -31.75004571 105.83834139 -25.97038269 84.92000198 C-24.60191331 79.96737859 -23.23301107 75.01487487 -21.86402893 70.06239319 C-21.46875818 68.63237457 -21.46875818 68.63237457 -21.06550217 67.17346668 C-19.77370913 62.50037257 -18.48140452 57.82742087 -17.18806458 53.15475464 C-16.6884489 51.34963542 -16.18883544 49.5445156 -15.68922424 47.73939514 C-15.44558262 46.85918544 -15.20194099 45.97897573 -14.95091629 45.07209301 C-13.46993819 39.71952547 -11.99395483 34.36560796 -10.52171135 29.01063156 C-9.58465441 25.60400368 -8.64505027 22.1980816 -7.70495987 18.79228973 C-7.26631252 17.20065685 -6.82885145 15.6086965 -6.39263535 14.01639557 C-5.79903475 11.84997653 -5.20141409 9.68470628 -4.60279846 7.51966858 C-4.2678537 6.30152466 -3.93290894 5.08338074 -3.58781433 3.82832336 C-2.45927086 0.16873298 -2.45927086 0.16873298 0 0 Z " fill="#221E1F" transform="translate(767.7527008056641,555.8797454833984)"/>
<path d="M0 0 C2.66746156 2.37549862 4.08252865 4.80586577 5.66040039 7.99609375 C6.42248558 9.52544556 6.42248558 9.52544556 7.19996643 11.08569336 C7.74370407 12.19178955 8.28744171 13.29788574 8.84765625 14.4375 C9.72147493 16.19525693 10.5952959 17.95301272 11.46923733 19.71070862 C12.69625336 22.18228405 13.91774742 24.65657151 15.13928223 27.13085938 C17.82594821 32.57026564 20.52408614 38.0039926 23.22265625 43.4375 C23.80601746 44.61285812 24.38937866 45.78821625 24.99041748 46.99919128 C28.75400471 54.56019523 32.61290301 62.06183782 36.57566833 69.52009583 C40.55426446 77.01236336 44.35175877 84.59026073 48.125 92.1875 C48.80188846 93.54632105 49.4789717 94.90504509 50.15625 96.26367188 C51.77305442 99.50801228 53.38730961 102.75361223 55 106 C48.25902482 114.00725165 41.02161314 121.35249199 33.0625 128.15625 C30.61075311 130.34796313 28.31114427 132.66067104 26 135 C23.10408042 137.93118191 20.19757429 140.76403174 17.0625 143.4375 C13.71074927 146.30172335 10.59443244 149.36333716 7.5 152.5 C3.81005412 156.24030338 0.02496302 159.7823935 -3.97265625 163.19140625 C-6.41428634 165.36958492 -8.70048032 167.67248008 -11 170 C-13.89591958 172.93118191 -16.80242571 175.76403174 -19.9375 178.4375 C-23.28925073 181.30172335 -26.40556756 184.36333716 -29.5 187.5 C-33.1867852 191.23709956 -36.96521132 194.77958929 -40.96484375 198.1796875 C-43.46244479 200.41362625 -45.78207384 202.79219844 -48.125 205.1875 C-51.55608815 208.66624215 -54.77632594 211.55471502 -59 214 C-57.41292029 205.3192878 -55.25777913 196.81963428 -52.96118164 188.30419922 C-52.52842348 186.68359563 -52.10492039 185.0604925 -51.69067383 183.43505859 C-47.34589915 166.40930517 -47.34589915 166.40930517 -40 160 C-39.21753906 159.17371094 -38.43507813 158.34742188 -37.62890625 157.49609375 C-33.57486716 153.45738184 -29.4421924 149.60156048 -25.09765625 145.87890625 C-22.635741 143.67372704 -20.3227636 141.35113323 -18 139 C-14.47893677 135.43599698 -10.86813992 132.09695832 -7.0625 128.84375 C-3.71921754 125.8550581 -0.61917189 122.62681598 2.53125 119.4375 C5.38601162 116.61887461 8.35428137 113.97667818 11.40625 111.375 C12.65053045 110.30150314 13.83796959 109.16203041 15 108 C14.84819372 102.02035633 11.71827621 97.02758865 9.01171875 91.8515625 C8.51211136 90.88020355 8.01250397 89.9088446 7.49775696 88.90805054 C5.90201609 85.80966677 4.29503271 82.71727948 2.6875 79.625 C1.61707462 77.55247771 0.547405 75.47956489 -0.52148438 73.40625 C-2.49305774 69.58296787 -4.46977772 65.76242781 -6.45043945 61.94384766 C-6.88015045 61.10090149 -7.30986145 60.25795532 -7.75259399 59.38946533 C-8.5516597 57.8588171 -9.3845664 56.34508764 -10.25888062 54.85614014 C-13.01871209 49.99857084 -13.36146344 46.4740698 -12 41 C-11.82670166 40.27927307 -11.65340332 39.55854614 -11.47485352 38.815979 C-10.86857184 36.44976458 -10.20812269 34.10477203 -9.53125 31.7578125 C-9.29088013 30.90822968 -9.05051025 30.05864685 -8.80285645 29.18331909 C-8.29790306 27.40268428 -7.79017302 25.62283473 -7.27978516 23.84375 C-6.49675799 21.1136966 -5.72228099 18.38132756 -4.94921875 15.6484375 C-4.45622085 13.91392268 -3.96274824 12.17954269 -3.46875 10.4453125 C-3.23643677 9.62765411 -3.00412354 8.80999573 -2.76477051 7.96755981 C-1.11714007 2.23428014 -1.11714007 2.23428014 0 0 Z " fill="#008A42" transform="translate(881,557)"/>
</svg>
